<?xml version="1.0" encoding="utf-8"?><svg xmlns="http://www.w3.org/2000/svg" xmlns:xlink="http://www.w3.org/1999/xlink" width="1692" height="800" preserveAspectRatio="xMidYMid" viewBox="0 0 1692 800" style="z-index:1;margin-right:-2px;display:block;background-repeat-y:initial;background-repeat-x:initial;background-color:rgb(255, 255, 255);animation-play-state:paused" ><g transform="translate(846,400) scale(1,1) translate(-846,-400)" style="transform:matrix(1, 0, 0, 1, 0, 0);animation-play-state:paused" ><linearGradient id="lg-0.291417662965914" x1="0" x2="1" y1="0" y2="0" style="animation-play-state:paused" ><stop stop-color="#ff00ff" offset="0" style="animation-play-state:paused" ></stop>

  
<stop stop-color="#00ffff" offset="1" style="animation-play-state:paused" ></stop></linearGradient>
<path d="M 0 0 L 0 684.72 Q 141 675.804 282 654.283 T 564 606.227 T 846 591.851 T 1128 412.067 T 1410 469.651 T 1692 359.331 L 1692 0 Z" fill="url(#lg-0.291417662965914)" opacity="0.4" style="opacity:0.4;animation-play-state:paused" ></path>
<path d="M 0 0 L 0 743.306 Q 141 701.031 282 665.289 T 564 581.756 T 846 528.885 T 1128 427.708 T 1410 413.437 T 1692 347.03 L 1692 0 Z" fill="url(#lg-0.291417662965914)" opacity="0.4" style="opacity:0.4;animation-play-state:paused" ></path>
<path d="M 0 0 L 0 709.121 Q 141 649.294 282 632.644 T 564 627.185 T 846 508.32 T 1128 475.913 T 1410 366.985 T 1692 320.265 L 1692 0 Z" fill="url(#lg-0.291417662965914)" opacity="0.4" style="opacity:0.4;animation-play-state:paused" ></path>
<path d="M 0 0 L 0 699.723 Q 141 690.507 282 669.852 T 564 529.611 T 846 493.633 T 1128 484.564 T 1410 440.486 T 1692 295.086 L 1692 0 Z" fill="url(#lg-0.291417662965914)" opacity="0.4" style="opacity:0.4;animation-play-state:paused" ></path>
<path d="M 0 0 L 0 718.828 Q 141 656.184 282 633.538 T 564 656.018 T 846 540.555 T 1128 434.575 T 1410 437.332 T 1692 280.619 L 1692 0 Z" fill="url(#lg-0.291417662965914)" opacity="0.4" style="opacity:0.4;animation-play-state:paused" ></path></g></svg>